<svg xmlns="http://www.w3.org/2000/svg" viewBox="0 0 512 512" fill="#7952b3">
  <!-- Envelope base -->
  <path d="M64 112c-8.8 0-16 7.2-16 16v22.1L220.5 291.7c20.7 17 50.4 17 71.1 0L464 150.1V128c0-8.8-7.2-16-16-16H64zM48 212.2V384c0 8.8 7.2 16 16 16H448c8.8 0 16-7.2 16-16V212.2L322 328.8c-38.4 31.5-93.7 31.5-132 0L48 212.2zM0 128C0 92.7 28.7 64 64 64H448c35.3 0 64 28.7 64 64V384c0 35.3-28.7 64-64 64H64c-35.3 0-64-28.7-64-64V128z"/>
  <!-- Incognito mask overlay -->
  <circle cx="400" cy="100" r="70" fill="#7952b3"/>
  <path d="M400 50c-27.6 0-50 22.4-50 50 0 5.5 4.5 10 10 10h80c5.5 0 10-4.5 10-10 0-27.6-22.4-50-50-50z" fill="white"/>
  <ellipse cx="380" cy="100" rx="12" ry="18" fill="white"/>
  <ellipse cx="420" cy="100" rx="12" ry="18" fill="white"/>
  <ellipse cx="380" cy="100" rx="6" ry="10" fill="#7952b3"/>
  <ellipse cx="420" cy="100" rx="6" ry="10" fill="#7952b3"/>
</svg>
